<svg xmlns="http://www.w3.org/2000/svg" viewBox="0 0 1200 420" width="1200" height="420" role="img" aria-label="ReviewForge AI: claims stack into tiers, and evidence is carried up to be checked"><title>ReviewForge AI — DUNG30N5 × NOAERTH</title><desc>ReviewForge AI. a claim assembled into something a reader can check. Motion: claims stack into tiers, and evidence is carried up to be checked. Identity family EVIDENCE_SURFACE resolved from architecture = DOCUMENT.</desc><rect width="1200" height="420" fill="#f7f5f0"/><text x="72" y="108" font-family="ui-monospace, SFMono-Regular, Menlo, Monaco, Consolas, 'Liberation Mono', monospace" font-size="11" letter-spacing="2.6" fill="#14171c4f">GENERAL · EVIDENCE_SURFACE</text><text x="72" y="168" font-family="-apple-system, BlinkMacSystemFont, 'Segoe UI', Inter, Helvetica, Arial, sans-serif" font-size="44" font-weight="660" letter-spacing="-1.2" fill="#14171c">ReviewForge AI</text><text x="72" y="204" font-family="-apple-system, BlinkMacSystemFont, 'Segoe UI', Inter, Helvetica, Arial, sans-serif" font-size="15" fill="#14171ca8">A review-workflow concept.</text><rect x="72.0" y="292.0" width="70.0" height="34.0" rx="8" fill="#14171c" stroke="#14171c1f" stroke-width="1.1"></rect><rect x="72.0" y="292.0" width="2.5" height="34.0" rx="1.2" fill="#2f7d6c" opacity="0.92"/><text x="107.0" y="314" font-family="ui-monospace, SFMono-Regular, Menlo, Monaco, Consolas, 'Liberation Mono', monospace" font-size="11" fill="#14171c" fill-opacity="0.82" text-anchor="middle">general</text><rect x="726.0" y="84.0" width="412.0" height="252.0" rx="14" fill="#9a6b1f" fill-opacity="0.02"/><rect x="729.0" y="87.0" width="406.0" height="246.0" rx="12" fill="none" stroke="#9a6b1f" stroke-width="1" stroke-opacity="0.18"/><rect x="743.0" y="316.0" width="378.0" height="25" rx="5" fill="none" stroke="#9a6b1f" stroke-width="1.1" opacity="0.32"/><rect x="753.0" y="285.0" width="370.0" height="25" rx="5" fill="none" stroke="#9a6b1f" stroke-width="1.1" opacity="0.27"/><rect x="763.0" y="254.0" width="362.0" height="25" rx="5" fill="none" stroke="#9a6b1f" stroke-width="1.1" opacity="0.22"/><rect x="773.0" y="223.0" width="354.0" height="25" rx="5" fill="none" stroke="#9a6b1f" stroke-width="1.1" opacity="0.17"/><rect x="783.0" y="192.0" width="346.0" height="25" rx="5" fill="none" stroke="#9a6b1f" stroke-width="1.1" opacity="0.12"/><rect x="726.0" y="84.0" width="412.0" height="3" rx="1.5" fill="#9a6b1f" opacity="0.35"/><path d="M1095.0 302.0 l9 -9 l9 9 l-9 9 z" fill="none" stroke="#2f7d6c" stroke-width="1.4" opacity="0.6"/><rect x="850.0" y="302.0" width="200.0" height="24" rx="7" fill="#9a6b1f" fill-opacity="0.09" stroke="#9a6b1f" stroke-width="1.1" opacity="0.9"/><rect x="818.5" y="270.0" width="263.0" height="24" rx="7" fill="#9a6b1f" fill-opacity="0.09" stroke="#9a6b1f" stroke-width="1.1" opacity="0.9"/><rect x="787.0" y="238.0" width="326.0" height="24" rx="7" fill="#9a6b1f" fill-opacity="0.09" stroke="#9a6b1f" stroke-width="1.1" opacity="0.9"/><circle cx="880" cy="238" r="3.4" fill="#2f7d6c" opacity="0.8"/><circle cx="966" cy="238" r="3.4" fill="#2f7d6c" opacity="0.8"/><circle cx="1036" cy="238" r="3.4" fill="#2f7d6c" opacity="0.8"/><line x1="790" y1="330" x2="1110" y2="330" stroke="#14171c1f" stroke-width="1"/><text x="950" y="352" font-family="ui-monospace, SFMono-Regular, Menlo, Monaco, Consolas, 'Liberation Mono', monospace" font-size="10" fill="#14171c4f" text-anchor="middle">3 tiers</text><text x="72" y="388" font-family="ui-monospace, SFMono-Regular, Menlo, Monaco, Consolas, 'Liberation Mono', monospace" font-size="10.5" letter-spacing="2.1" fill="#14171c4f">DUNG30N5 × NOAERTH · V6 · nested_frames</text></svg>